# This file uses centimeters as units for non-parametric coordinates.

mtllib skybox.mtl
g default
v -49.949192 -49.464748 48.975513
v 48.975513 -49.464733 49.949181
v -49.949192 49.464748 48.975513
v 48.975506 49.464729 49.949169
v -48.975513 49.464748 -49.949192
v 49.949188 49.464733 -48.975506
v -48.975513 -49.464748 -49.949192
v 49.949200 -49.464729 -48.975479
vt 0.000536 0.000857
vt 0.999464 0.000857
vt 0.000536 0.999786
vt 0.999464 0.999786
vt 0.000000 1.000000
vt 1.000000 1.000000
vt 1.000000 0.000000
vt 0.000000 0.000000
vt 0.004235 -0.000241
vt 1.000241 0.004235
vt 0.995765 1.000241
vt -0.000241 0.995765
vt 0.001992 0.001992
vt 0.997961 0.001992
vt 0.997961 0.998008
vt 0.001992 0.998008
vt 0.001992 0.001992
vt 0.997960 0.001992
vt 0.997960 0.998008
vt 0.001992 0.998008
vt 0.998995 0.996969
vt 0.003031 0.999045
vt 0.000955 0.003031
vt 0.996919 0.000955
vn -0.009842 0.000000 0.999952
vn -0.009842 0.000000 0.999952
vn -0.009842 0.000000 0.999952
vn -0.009842 0.000000 0.999952
vn 0.000000 1.000000 0.000000
vn 0.000000 1.000000 0.000000
vn 0.000000 1.000000 0.000000
vn 0.000000 1.000000 0.000000
vn 0.009842 -0.000000 -0.999952
vn 0.009842 -0.000000 -0.999952
vn 0.009842 -0.000000 -0.999952
vn 0.009842 -0.000000 -0.999952
vn 0.000000 -1.000000 -0.000000
vn 0.000000 -1.000000 -0.000000
vn 0.000000 -1.000000 -0.000000
vn 0.000000 -1.000000 -0.000000
vn 0.999952 0.000000 0.009842
vn 0.999952 0.000000 0.009842
vn 0.999952 0.000000 0.009842
vn 0.999952 0.000000 0.009842
vn -0.999952 0.000000 -0.009842
vn -0.999952 0.000000 -0.009842
vn -0.999952 0.000000 -0.009842
vn -0.999952 0.000000 -0.009842
s off
g pCube1
usemtl lambert6SG
f 1/17/1 2/18/2 4/19/3 3/20/4
usemtl lambert2SG
f 3/1/5 4/2/6 6/4/7 5/3/8
usemtl lambert7SG
f 5/21/9 6/22/10 8/23/11 7/24/12
usemtl lambert3SG
f 7/5/13 8/6/14 2/7/15 1/8/16
usemtl lambert4SG
f 2/9/17 8/10/18 6/11/19 4/12/20
usemtl lambert5SG
f 7/13/21 1/14/22 3/15/23 5/16/24
