# This file uses centimeters as units for non-parametric coordinates.

mtllib agua.mtl
g default
v -1.951639 -0.024104 11.843205
v 1.951639 -0.024104 11.843205
v -1.951639 0.024104 11.843205
v 1.951639 0.024104 11.843205
v -1.951639 0.024104 -11.843205
v 1.951639 0.024104 -11.843205
v -1.951639 -0.024104 -11.843205
v 1.951639 -0.024104 -11.843205
vt 0.251609 0.001992
vt 0.735289 0.001992
vt 0.735289 0.998008
vt 0.251609 0.998008
vn 0.000000 0.000000 1.000000
vn 0.000000 0.000000 1.000000
vn 0.000000 0.000000 1.000000
vn 0.000000 0.000000 1.000000
vn 0.000000 1.000000 0.000000
vn 0.000000 1.000000 0.000000
vn 0.000000 1.000000 0.000000
vn 0.000000 1.000000 0.000000
vn 0.000000 0.000000 -1.000000
vn 0.000000 0.000000 -1.000000
vn 0.000000 0.000000 -1.000000
vn 0.000000 0.000000 -1.000000
vn 0.000000 -1.000000 0.000000
vn 0.000000 -1.000000 0.000000
vn 0.000000 -1.000000 0.000000
vn 0.000000 -1.000000 0.000000
vn 1.000000 0.000000 0.000000
vn 1.000000 0.000000 0.000000
vn 1.000000 0.000000 0.000000
vn 1.000000 0.000000 0.000000
vn -1.000000 0.000000 0.000000
vn -1.000000 0.000000 0.000000
vn -1.000000 0.000000 0.000000
vn -1.000000 0.000000 0.000000
s off
g agua1:pCube1
usemtl agua1:initialShadingGroup
f 1//1 2//2 4//3 3//4
f 3/1/5 4/2/6 6/3/7 5/4/8
f 5//9 6//10 8//11 7//12
f 7//13 8//14 2//15 1//16
f 2//17 8//18 6//19 4//20
f 7//21 1//22 3//23 5//24
