# This file uses centimeters as units for non-parametric coordinates.

mtllib cono1.mtl
g default
v 3.146779 -3.308718 -1.022450
v 2.676811 -3.308718 -1.944817
v 1.944817 -3.308718 -2.676811
v 1.022451 -3.308718 -3.146780
v 0.000000 -3.308718 -3.308720
v -1.022451 -3.308718 -3.146780
v -1.944816 -3.308718 -2.676810
v -2.676810 -3.308718 -1.944816
v -3.146779 -3.308718 -1.022450
v -3.308719 -3.308718 0.000000
v -3.146779 -3.308718 1.022450
v -2.676810 -3.308718 1.944816
v -1.944816 -3.308718 2.676810
v -1.022450 -3.308718 3.146779
v -0.000000 -3.308718 3.308719
v 1.022450 -3.308718 3.146778
v 1.944816 -3.308718 2.676810
v 2.676809 -3.308718 1.944816
v 3.146778 -3.308718 1.022450
v 3.308717 -3.308718 0.000000
v -0.000000 3.308718 0.000000
vt 0.959357 0.394714
vt 0.895785 0.445143
vt 0.489271 1.206412
vt 0.801339 0.484799
vt 0.021288 0.278440
vt 0.099885 0.221476
vt 0.229078 0.176565
vt 0.395234 0.151415
vt 0.575403 0.150848
vt 0.742723 0.174978
vt 0.873928 0.219162
vt 0.954914 0.275768
vt 0.981961 0.336601
vt 0.294937 0.772606
vt 0.301688 0.815230
vt 0.294937 0.857853
vt 0.275345 0.896304
vt 0.244830 0.926819
vt 0.206379 0.946411
vt 0.163755 0.953162
vt 0.121132 0.946411
vt 0.082680 0.926819
vt 0.052165 0.896304
vt 0.032573 0.857853
vt 0.025822 0.815230
vt 0.032573 0.772606
vt 0.052165 0.734155
vt 0.082680 0.703640
vt 0.121132 0.684048
vt 0.163755 0.677297
vt 0.206379 0.684048
vt 0.244830 0.703640
vt 0.275345 0.734155
vn 0.000000 -1.000000 0.000000
vn 0.000000 -1.000000 0.000000
vn 0.000000 -1.000000 0.000000
vn 0.000000 -1.000000 0.000000
vn 0.000000 -1.000000 0.000000
vn 0.000000 -1.000000 0.000000
vn 0.000000 -1.000000 0.000000
vn 0.000000 -1.000000 0.000000
vn 0.000000 -1.000000 0.000000
vn 0.000000 -1.000000 0.000000
vn 0.000000 -1.000000 0.000000
vn 0.000000 -1.000000 0.000000
vn 0.000000 -1.000000 0.000000
vn 0.000000 -1.000000 0.000000
vn 0.000000 -1.000000 0.000000
vn 0.000000 -1.000000 0.000000
vn 0.000000 -1.000000 0.000000
vn 0.000000 -1.000000 0.000000
vn 0.000000 -1.000000 0.000000
vn 0.000000 -1.000000 0.000000
vn 0.850651 0.447214 -0.276392
vn 0.723607 0.447214 -0.525731
vn -0.000000 1.000000 -0.000001
vn 0.525731 0.447214 -0.723607
vn 0.276393 0.447214 -0.850651
vn 0.000000 0.447214 -0.894427
vn -0.276393 0.447214 -0.850651
vn -0.525731 0.447214 -0.723607
vn -0.723607 0.447214 -0.525731
vn -0.850651 0.447214 -0.276393
vn -0.894427 0.447214 0.000000
vn -0.850651 0.447214 0.276393
vn -0.723607 0.447214 0.525731
vn -0.525731 0.447214 0.723607
vn -0.276393 0.447214 0.850651
vn 0.000000 0.447214 0.894427
vn 0.276393 0.447214 0.850651
vn 0.525731 0.447214 0.723607
vn 0.723607 0.447214 0.525731
vn 0.850651 0.447214 0.276393
vn 0.894427 0.447214 0.000000
s off
g pCone1
usemtl lambert9SG
f 1/14/1 20/15/2 19/16/3 18/17/4 17/18/5 16/19/6 15/20/7 14/21/8 13/22/9 12/23/10 11/24/11 10/25/12 9/26/13 8/27/14 7/28/15 6/29/16 5/30/17 4/31/18 3/32/19 2/33/20
s 1
usemtl lambert5SG
f 1/1/21 2/2/22 21/3/23
f 2/2/22 3/4/24 21/3/23
usemtl lambert7SG
f 3//24 4//25 21//23
f 4//25 5//26 21//23
f 5//26 6//27 21//23
f 6//27 7//28 21//23
f 7//28 8//29 21//23
f 8//29 9//30 21//23
f 9//30 10//31 21//23
f 10//31 11//32 21//23
f 11//32 12//33 21//23
f 12/5/33 13/6/34 21/3/23
usemtl lambert5SG
f 13/6/34 14/7/35 21/3/23
f 14/7/35 15/8/36 21/3/23
f 15/8/36 16/9/37 21/3/23
f 16/9/37 17/10/38 21/3/23
f 17/10/38 18/11/39 21/3/23
f 18/11/39 19/12/40 21/3/23
f 19/12/40 20/13/41 21/3/23
f 20/13/41 1/1/21 21/3/23
