# This file uses centimeters as units for non-parametric coordinates.

mtllib cono3.mtl
g default
v 3.146779 -3.308718 -1.022450
v 2.676811 -3.308718 -1.944817
v 1.944817 -3.308718 -2.676811
v 1.022451 -3.308718 -3.146780
v 0.000000 -3.308718 -3.308720
v -1.022451 -3.308718 -3.146780
v -1.944816 -3.308718 -2.676810
v -2.676810 -3.308718 -1.944816
v -3.146779 -3.308718 -1.022450
v -3.308719 -3.308718 0.000000
v -3.146779 -3.308718 1.022450
v -2.676810 -3.308718 1.944816
v -1.944816 -3.308718 2.676810
v -1.022450 -3.308718 3.146779
v -0.000000 -3.308718 3.308719
v 1.022450 -3.308718 3.146778
v 1.944816 -3.308718 2.676810
v 2.676809 -3.308718 1.944816
v 3.146778 -3.308718 1.022450
v 3.308717 -3.308718 0.000000
v -0.000000 3.308718 0.000000
vt 0.294937 0.772606
vt 0.301688 0.815230
vt 0.294937 0.857853
vt 0.275345 0.896304
vt 0.244830 0.926819
vt 0.206379 0.946411
vt 0.163755 0.953162
vt 0.121132 0.946411
vt 0.082680 0.926819
vt 0.052165 0.896304
vt 0.032573 0.857853
vt 0.025822 0.815230
vt 0.032573 0.772606
vt 0.052165 0.734155
vt 0.082680 0.703640
vt 0.121132 0.684048
vt 0.163755 0.677297
vt 0.206379 0.684048
vt 0.244830 0.703640
vt 0.275345 0.734155
vt 1.123885 0.217784
vt 1.255758 0.217784
vt 0.662329 1.069425
vt -0.326719 0.217784
vt -0.194846 0.217784
vt -0.062973 0.217784
vt 0.068900 0.217784
vt 0.200773 0.217784
vt 0.332646 0.217784
vt 0.464519 0.217784
vt 0.596393 0.217784
vt 0.728265 0.217784
vt 0.860139 0.217784
vt 0.992012 0.217784
vn 0.000000 -1.000000 0.000000
vn 0.000000 -1.000000 0.000000
vn 0.000000 -1.000000 0.000000
vn 0.000000 -1.000000 0.000000
vn 0.000000 -1.000000 0.000000
vn 0.000000 -1.000000 0.000000
vn 0.000000 -1.000000 0.000000
vn 0.000000 -1.000000 0.000000
vn 0.000000 -1.000000 0.000000
vn 0.000000 -1.000000 0.000000
vn 0.000000 -1.000000 0.000000
vn 0.000000 -1.000000 0.000000
vn 0.000000 -1.000000 0.000000
vn 0.000000 -1.000000 0.000000
vn 0.000000 -1.000000 0.000000
vn 0.000000 -1.000000 0.000000
vn 0.000000 -1.000000 0.000000
vn 0.000000 -1.000000 0.000000
vn 0.000000 -1.000000 0.000000
vn 0.000000 -1.000000 0.000000
vn 0.850651 0.447214 -0.276392
vn 0.723607 0.447214 -0.525731
vn -0.000000 1.000000 -0.000001
vn 0.525731 0.447214 -0.723607
vn 0.276393 0.447214 -0.850651
vn 0.000000 0.447214 -0.894427
vn -0.276393 0.447214 -0.850651
vn -0.525731 0.447214 -0.723607
vn -0.723607 0.447214 -0.525731
vn -0.850651 0.447214 -0.276393
vn -0.894427 0.447214 0.000000
vn -0.850651 0.447214 0.276393
vn -0.723607 0.447214 0.525731
vn -0.525731 0.447214 0.723607
vn -0.276393 0.447214 0.850651
vn 0.000000 0.447214 0.894427
vn 0.276393 0.447214 0.850651
vn 0.525731 0.447214 0.723607
vn 0.723607 0.447214 0.525731
vn 0.850651 0.447214 0.276393
vn 0.894427 0.447214 0.000000
s off
g pCone1
usemtl lambert11SG
f 1/1/1 20/2/2 19/3/3 18/4/4 17/5/5 16/6/6 15/7/7 14/8/8 13/9/9 12/10/10 11/11/11 10/12/12 9/13/13 8/14/14 7/15/15 6/16/16 5/17/17 4/18/18 3/19/19 2/20/20
s 1
f 1/21/21 2/22/22 21/23/23
f 2//22 3//24 21//23
f 3//24 4//25 21//23
f 4//25 5//26 21//23
f 5//26 6//27 21//23
f 6//27 7//28 21//23
f 7//28 8//29 21//23
f 8//29 9//30 21//23
f 9//30 10//31 21//23
f 10/24/31 11/25/32 21/23/23
f 11/25/32 12/26/33 21/23/23
f 12/26/33 13/27/34 21/23/23
f 13/27/34 14/28/35 21/23/23
f 14/28/35 15/29/36 21/23/23
f 15/29/36 16/30/37 21/23/23
f 16/30/37 17/31/38 21/23/23
f 17/31/38 18/32/39 21/23/23
f 18/32/39 19/33/40 21/23/23
f 19/33/40 20/34/41 21/23/23
f 20/34/41 1/21/21 21/23/23
